<mxfile host="app.diagrams.net" agent="Mozilla/5.0 (Windows NT 10.0; Win64; x64) AppleWebKit/537.36 (KHTML, like Gecko) Chrome/128.0.0.0 Safari/537.36" version="24.7.14">
  <diagram name="Page-1" id="uXB5LIt6kqsP0RmGYUAU">
    <mxGraphModel dx="707" dy="1513" grid="1" gridSize="10" guides="1" tooltips="1" connect="1" arrows="0" fold="1" page="1" pageScale="1" pageWidth="850" pageHeight="1100" math="0" shadow="0">
      <root>
        <mxCell id="0" />
        <mxCell id="1" parent="0" />
        <mxCell id="Jgj5xXcWkNo-XnmWYlLt-12" style="edgeStyle=orthogonalEdgeStyle;rounded=0;orthogonalLoop=1;jettySize=auto;html=1;exitX=1;exitY=0.5;exitDx=0;exitDy=0;entryX=0;entryY=0.5;entryDx=0;entryDy=0;endArrow=none;endFill=0;" edge="1" parent="1" source="pIZPzY1zts8C6MZ0jh2w-1" target="Jgj5xXcWkNo-XnmWYlLt-1">
          <mxGeometry relative="1" as="geometry" />
        </mxCell>
        <mxCell id="Jgj5xXcWkNo-XnmWYlLt-26" style="edgeStyle=orthogonalEdgeStyle;shape=connector;rounded=0;orthogonalLoop=1;jettySize=auto;html=1;exitX=0.5;exitY=1;exitDx=0;exitDy=0;strokeColor=default;align=center;verticalAlign=middle;fontFamily=Helvetica;fontSize=11;fontColor=default;labelBackgroundColor=default;endArrow=oval;endFill=0;" edge="1" parent="1" source="pIZPzY1zts8C6MZ0jh2w-1" target="Jgj5xXcWkNo-XnmWYlLt-25">
          <mxGeometry relative="1" as="geometry">
            <Array as="points">
              <mxPoint x="170" y="350" />
            </Array>
          </mxGeometry>
        </mxCell>
        <mxCell id="Jgj5xXcWkNo-XnmWYlLt-29" style="edgeStyle=orthogonalEdgeStyle;shape=connector;rounded=0;orthogonalLoop=1;jettySize=auto;html=1;exitX=0.75;exitY=1;exitDx=0;exitDy=0;entryX=0.5;entryY=0;entryDx=0;entryDy=0;strokeColor=default;align=center;verticalAlign=middle;fontFamily=Helvetica;fontSize=11;fontColor=default;labelBackgroundColor=default;endArrow=oval;endFill=0;" edge="1" parent="1" source="pIZPzY1zts8C6MZ0jh2w-1" target="Jgj5xXcWkNo-XnmWYlLt-27">
          <mxGeometry relative="1" as="geometry" />
        </mxCell>
        <mxCell id="Jgj5xXcWkNo-XnmWYlLt-33" style="edgeStyle=orthogonalEdgeStyle;shape=connector;rounded=0;orthogonalLoop=1;jettySize=auto;html=1;exitX=0.25;exitY=0;exitDx=0;exitDy=0;entryX=0.5;entryY=1;entryDx=0;entryDy=0;strokeColor=default;align=center;verticalAlign=middle;fontFamily=Helvetica;fontSize=11;fontColor=default;labelBackgroundColor=default;endArrow=oval;endFill=0;" edge="1" parent="1" source="pIZPzY1zts8C6MZ0jh2w-1" target="Jgj5xXcWkNo-XnmWYlLt-30">
          <mxGeometry relative="1" as="geometry" />
        </mxCell>
        <mxCell id="Jgj5xXcWkNo-XnmWYlLt-34" style="edgeStyle=orthogonalEdgeStyle;shape=connector;rounded=0;orthogonalLoop=1;jettySize=auto;html=1;exitX=0.5;exitY=0;exitDx=0;exitDy=0;entryX=0.5;entryY=1;entryDx=0;entryDy=0;strokeColor=default;align=center;verticalAlign=middle;fontFamily=Helvetica;fontSize=11;fontColor=default;labelBackgroundColor=default;endArrow=oval;endFill=0;" edge="1" parent="1" source="pIZPzY1zts8C6MZ0jh2w-1" target="Jgj5xXcWkNo-XnmWYlLt-31">
          <mxGeometry relative="1" as="geometry" />
        </mxCell>
        <mxCell id="Jgj5xXcWkNo-XnmWYlLt-35" style="edgeStyle=orthogonalEdgeStyle;shape=connector;rounded=0;orthogonalLoop=1;jettySize=auto;html=1;exitX=0.75;exitY=0;exitDx=0;exitDy=0;entryX=0.5;entryY=1;entryDx=0;entryDy=0;strokeColor=default;align=center;verticalAlign=middle;fontFamily=Helvetica;fontSize=11;fontColor=default;labelBackgroundColor=default;endArrow=oval;endFill=0;" edge="1" parent="1" source="pIZPzY1zts8C6MZ0jh2w-1" target="Jgj5xXcWkNo-XnmWYlLt-32">
          <mxGeometry relative="1" as="geometry" />
        </mxCell>
        <mxCell id="pIZPzY1zts8C6MZ0jh2w-1" value="companies" style="rounded=0;whiteSpace=wrap;html=1;" parent="1" vertex="1">
          <mxGeometry x="120" y="290" width="120" height="60" as="geometry" />
        </mxCell>
        <mxCell id="Jgj5xXcWkNo-XnmWYlLt-1" value="owns" style="rhombus;whiteSpace=wrap;html=1;" vertex="1" parent="1">
          <mxGeometry x="281" y="280" width="80" height="80" as="geometry" />
        </mxCell>
        <mxCell id="Jgj5xXcWkNo-XnmWYlLt-13" style="edgeStyle=orthogonalEdgeStyle;shape=connector;rounded=0;orthogonalLoop=1;jettySize=auto;html=1;exitX=0;exitY=0.5;exitDx=0;exitDy=0;strokeColor=default;align=center;verticalAlign=middle;fontFamily=Helvetica;fontSize=11;fontColor=default;labelBackgroundColor=default;endArrow=none;endFill=0;" edge="1" parent="1" source="Jgj5xXcWkNo-XnmWYlLt-2" target="Jgj5xXcWkNo-XnmWYlLt-1">
          <mxGeometry relative="1" as="geometry" />
        </mxCell>
        <mxCell id="Jgj5xXcWkNo-XnmWYlLt-14" style="edgeStyle=orthogonalEdgeStyle;shape=connector;rounded=0;orthogonalLoop=1;jettySize=auto;html=1;exitX=1;exitY=0.5;exitDx=0;exitDy=0;entryX=0;entryY=0.5;entryDx=0;entryDy=0;strokeColor=default;align=center;verticalAlign=middle;fontFamily=Helvetica;fontSize=11;fontColor=default;labelBackgroundColor=default;endArrow=none;endFill=0;" edge="1" parent="1" source="Jgj5xXcWkNo-XnmWYlLt-2" target="Jgj5xXcWkNo-XnmWYlLt-4">
          <mxGeometry relative="1" as="geometry" />
        </mxCell>
        <mxCell id="Jgj5xXcWkNo-XnmWYlLt-38" style="edgeStyle=orthogonalEdgeStyle;shape=connector;rounded=0;orthogonalLoop=1;jettySize=auto;html=1;exitX=0.25;exitY=1;exitDx=0;exitDy=0;entryX=0.5;entryY=0;entryDx=0;entryDy=0;strokeColor=default;align=center;verticalAlign=middle;fontFamily=Helvetica;fontSize=11;fontColor=default;labelBackgroundColor=default;endArrow=oval;endFill=1;" edge="1" parent="1" source="Jgj5xXcWkNo-XnmWYlLt-2" target="Jgj5xXcWkNo-XnmWYlLt-36">
          <mxGeometry relative="1" as="geometry" />
        </mxCell>
        <mxCell id="Jgj5xXcWkNo-XnmWYlLt-39" style="edgeStyle=orthogonalEdgeStyle;shape=connector;rounded=0;orthogonalLoop=1;jettySize=auto;html=1;exitX=0.75;exitY=1;exitDx=0;exitDy=0;entryX=0.5;entryY=0;entryDx=0;entryDy=0;strokeColor=default;align=center;verticalAlign=middle;fontFamily=Helvetica;fontSize=11;fontColor=default;labelBackgroundColor=default;endArrow=oval;endFill=0;" edge="1" parent="1" source="Jgj5xXcWkNo-XnmWYlLt-2" target="Jgj5xXcWkNo-XnmWYlLt-37">
          <mxGeometry relative="1" as="geometry" />
        </mxCell>
        <mxCell id="Jgj5xXcWkNo-XnmWYlLt-2" value="container" style="rounded=0;whiteSpace=wrap;html=1;" vertex="1" parent="1">
          <mxGeometry x="400" y="290" width="120" height="60" as="geometry" />
        </mxCell>
        <mxCell id="Jgj5xXcWkNo-XnmWYlLt-15" style="edgeStyle=orthogonalEdgeStyle;shape=connector;rounded=0;orthogonalLoop=1;jettySize=auto;html=1;exitX=0.5;exitY=1;exitDx=0;exitDy=0;entryX=0;entryY=0.5;entryDx=0;entryDy=0;strokeColor=default;align=center;verticalAlign=middle;fontFamily=Helvetica;fontSize=11;fontColor=default;labelBackgroundColor=default;endArrow=none;endFill=0;" edge="1" parent="1" source="Jgj5xXcWkNo-XnmWYlLt-4" target="Jgj5xXcWkNo-XnmWYlLt-6">
          <mxGeometry relative="1" as="geometry" />
        </mxCell>
        <mxCell id="Jgj5xXcWkNo-XnmWYlLt-16" style="edgeStyle=orthogonalEdgeStyle;shape=connector;rounded=0;orthogonalLoop=1;jettySize=auto;html=1;exitX=0.5;exitY=0;exitDx=0;exitDy=0;entryX=0;entryY=0.5;entryDx=0;entryDy=0;strokeColor=default;align=center;verticalAlign=middle;fontFamily=Helvetica;fontSize=11;fontColor=default;labelBackgroundColor=default;endArrow=none;endFill=0;" edge="1" parent="1" source="Jgj5xXcWkNo-XnmWYlLt-4" target="Jgj5xXcWkNo-XnmWYlLt-5">
          <mxGeometry relative="1" as="geometry" />
        </mxCell>
        <mxCell id="Jgj5xXcWkNo-XnmWYlLt-4" value="positioned" style="rhombus;whiteSpace=wrap;html=1;" vertex="1" parent="1">
          <mxGeometry x="562" y="280" width="80" height="80" as="geometry" />
        </mxCell>
        <mxCell id="Jgj5xXcWkNo-XnmWYlLt-17" style="edgeStyle=orthogonalEdgeStyle;shape=connector;rounded=0;orthogonalLoop=1;jettySize=auto;html=1;exitX=0.5;exitY=0;exitDx=0;exitDy=0;entryX=0.5;entryY=1;entryDx=0;entryDy=0;strokeColor=default;align=center;verticalAlign=middle;fontFamily=Helvetica;fontSize=11;fontColor=default;labelBackgroundColor=default;endArrow=none;endFill=0;" edge="1" parent="1" source="Jgj5xXcWkNo-XnmWYlLt-5" target="Jgj5xXcWkNo-XnmWYlLt-7">
          <mxGeometry relative="1" as="geometry" />
        </mxCell>
        <mxCell id="Jgj5xXcWkNo-XnmWYlLt-43" style="edgeStyle=orthogonalEdgeStyle;shape=connector;rounded=0;orthogonalLoop=1;jettySize=auto;html=1;exitX=0.75;exitY=1;exitDx=0;exitDy=0;entryX=0.5;entryY=0;entryDx=0;entryDy=0;strokeColor=default;align=center;verticalAlign=middle;fontFamily=Helvetica;fontSize=11;fontColor=default;labelBackgroundColor=default;endArrow=oval;endFill=0;" edge="1" parent="1" source="Jgj5xXcWkNo-XnmWYlLt-5" target="Jgj5xXcWkNo-XnmWYlLt-42">
          <mxGeometry relative="1" as="geometry" />
        </mxCell>
        <mxCell id="Jgj5xXcWkNo-XnmWYlLt-44" style="edgeStyle=orthogonalEdgeStyle;shape=connector;rounded=0;orthogonalLoop=1;jettySize=auto;html=1;exitX=0.5;exitY=1;exitDx=0;exitDy=0;entryX=0.5;entryY=0;entryDx=0;entryDy=0;strokeColor=default;align=center;verticalAlign=middle;fontFamily=Helvetica;fontSize=11;fontColor=default;labelBackgroundColor=default;endArrow=oval;endFill=0;" edge="1" parent="1" source="Jgj5xXcWkNo-XnmWYlLt-5" target="Jgj5xXcWkNo-XnmWYlLt-41">
          <mxGeometry relative="1" as="geometry" />
        </mxCell>
        <mxCell id="Jgj5xXcWkNo-XnmWYlLt-45" style="edgeStyle=orthogonalEdgeStyle;shape=connector;rounded=0;orthogonalLoop=1;jettySize=auto;html=1;exitX=0.25;exitY=1;exitDx=0;exitDy=0;entryX=0.5;entryY=0;entryDx=0;entryDy=0;strokeColor=default;align=center;verticalAlign=middle;fontFamily=Helvetica;fontSize=11;fontColor=default;labelBackgroundColor=default;endArrow=oval;endFill=1;" edge="1" parent="1" source="Jgj5xXcWkNo-XnmWYlLt-5" target="Jgj5xXcWkNo-XnmWYlLt-40">
          <mxGeometry relative="1" as="geometry" />
        </mxCell>
        <mxCell id="Jgj5xXcWkNo-XnmWYlLt-49" style="edgeStyle=orthogonalEdgeStyle;shape=connector;rounded=0;orthogonalLoop=1;jettySize=auto;html=1;exitX=1;exitY=0.75;exitDx=0;exitDy=0;entryX=0;entryY=0.5;entryDx=0;entryDy=0;strokeColor=default;align=center;verticalAlign=middle;fontFamily=Helvetica;fontSize=11;fontColor=default;labelBackgroundColor=default;endArrow=oval;endFill=0;" edge="1" parent="1" source="Jgj5xXcWkNo-XnmWYlLt-5" target="Jgj5xXcWkNo-XnmWYlLt-48">
          <mxGeometry relative="1" as="geometry">
            <Array as="points">
              <mxPoint x="800" y="260" />
              <mxPoint x="820" y="260" />
            </Array>
          </mxGeometry>
        </mxCell>
        <mxCell id="Jgj5xXcWkNo-XnmWYlLt-50" style="edgeStyle=orthogonalEdgeStyle;shape=connector;rounded=0;orthogonalLoop=1;jettySize=auto;html=1;exitX=1;exitY=0.25;exitDx=0;exitDy=0;strokeColor=default;align=center;verticalAlign=middle;fontFamily=Helvetica;fontSize=11;fontColor=default;labelBackgroundColor=default;endArrow=oval;endFill=0;" edge="1" parent="1" source="Jgj5xXcWkNo-XnmWYlLt-5" target="Jgj5xXcWkNo-XnmWYlLt-46">
          <mxGeometry relative="1" as="geometry">
            <Array as="points">
              <mxPoint x="800" y="220" />
            </Array>
          </mxGeometry>
        </mxCell>
        <mxCell id="Jgj5xXcWkNo-XnmWYlLt-51" style="edgeStyle=orthogonalEdgeStyle;shape=connector;rounded=0;orthogonalLoop=1;jettySize=auto;html=1;exitX=1;exitY=0.5;exitDx=0;exitDy=0;strokeColor=default;align=center;verticalAlign=middle;fontFamily=Helvetica;fontSize=11;fontColor=default;labelBackgroundColor=default;endArrow=oval;endFill=0;" edge="1" parent="1" source="Jgj5xXcWkNo-XnmWYlLt-5" target="Jgj5xXcWkNo-XnmWYlLt-47">
          <mxGeometry relative="1" as="geometry" />
        </mxCell>
        <mxCell id="Jgj5xXcWkNo-XnmWYlLt-5" value="ship" style="rounded=0;whiteSpace=wrap;html=1;" vertex="1" parent="1">
          <mxGeometry x="680" y="210" width="120" height="60" as="geometry" />
        </mxCell>
        <mxCell id="Jgj5xXcWkNo-XnmWYlLt-18" style="edgeStyle=orthogonalEdgeStyle;shape=connector;rounded=0;orthogonalLoop=1;jettySize=auto;html=1;exitX=0.5;exitY=1;exitDx=0;exitDy=0;entryX=0.5;entryY=0;entryDx=0;entryDy=0;strokeColor=default;align=center;verticalAlign=middle;fontFamily=Helvetica;fontSize=11;fontColor=default;labelBackgroundColor=default;endArrow=none;endFill=0;" edge="1" parent="1" source="Jgj5xXcWkNo-XnmWYlLt-6" target="Jgj5xXcWkNo-XnmWYlLt-10">
          <mxGeometry relative="1" as="geometry" />
        </mxCell>
        <mxCell id="Jgj5xXcWkNo-XnmWYlLt-55" style="edgeStyle=orthogonalEdgeStyle;shape=connector;rounded=0;orthogonalLoop=1;jettySize=auto;html=1;exitX=1;exitY=0.25;exitDx=0;exitDy=0;strokeColor=default;align=center;verticalAlign=middle;fontFamily=Helvetica;fontSize=11;fontColor=default;labelBackgroundColor=default;endArrow=oval;endFill=1;" edge="1" parent="1" source="Jgj5xXcWkNo-XnmWYlLt-6" target="Jgj5xXcWkNo-XnmWYlLt-52">
          <mxGeometry relative="1" as="geometry">
            <Array as="points">
              <mxPoint x="800" y="379" />
            </Array>
          </mxGeometry>
        </mxCell>
        <mxCell id="Jgj5xXcWkNo-XnmWYlLt-56" style="edgeStyle=orthogonalEdgeStyle;shape=connector;rounded=0;orthogonalLoop=1;jettySize=auto;html=1;exitX=1;exitY=0.5;exitDx=0;exitDy=0;entryX=0;entryY=0.5;entryDx=0;entryDy=0;strokeColor=default;align=center;verticalAlign=middle;fontFamily=Helvetica;fontSize=11;fontColor=default;labelBackgroundColor=default;endArrow=oval;endFill=0;" edge="1" parent="1" source="Jgj5xXcWkNo-XnmWYlLt-6" target="Jgj5xXcWkNo-XnmWYlLt-53">
          <mxGeometry relative="1" as="geometry" />
        </mxCell>
        <mxCell id="Jgj5xXcWkNo-XnmWYlLt-57" style="edgeStyle=orthogonalEdgeStyle;shape=connector;rounded=0;orthogonalLoop=1;jettySize=auto;html=1;exitX=1;exitY=0.75;exitDx=0;exitDy=0;entryX=0;entryY=0.5;entryDx=0;entryDy=0;strokeColor=default;align=center;verticalAlign=middle;fontFamily=Helvetica;fontSize=11;fontColor=default;labelBackgroundColor=default;endArrow=oval;endFill=0;" edge="1" parent="1" source="Jgj5xXcWkNo-XnmWYlLt-6" target="Jgj5xXcWkNo-XnmWYlLt-54">
          <mxGeometry relative="1" as="geometry">
            <Array as="points">
              <mxPoint x="800" y="421" />
            </Array>
          </mxGeometry>
        </mxCell>
        <mxCell id="Jgj5xXcWkNo-XnmWYlLt-6" value="yard" style="rounded=0;whiteSpace=wrap;html=1;" vertex="1" parent="1">
          <mxGeometry x="680" y="370" width="120" height="60" as="geometry" />
        </mxCell>
        <mxCell id="Jgj5xXcWkNo-XnmWYlLt-20" style="edgeStyle=orthogonalEdgeStyle;shape=connector;rounded=0;orthogonalLoop=1;jettySize=auto;html=1;exitX=0.5;exitY=0;exitDx=0;exitDy=0;entryX=0.5;entryY=1;entryDx=0;entryDy=0;strokeColor=default;align=center;verticalAlign=middle;fontFamily=Helvetica;fontSize=11;fontColor=default;labelBackgroundColor=default;endArrow=none;endFill=0;" edge="1" parent="1" source="Jgj5xXcWkNo-XnmWYlLt-7" target="Jgj5xXcWkNo-XnmWYlLt-8">
          <mxGeometry relative="1" as="geometry" />
        </mxCell>
        <mxCell id="Jgj5xXcWkNo-XnmWYlLt-7" value="docked" style="rhombus;whiteSpace=wrap;html=1;" vertex="1" parent="1">
          <mxGeometry x="700" y="80" width="80" height="80" as="geometry" />
        </mxCell>
        <mxCell id="Jgj5xXcWkNo-XnmWYlLt-68" style="edgeStyle=orthogonalEdgeStyle;shape=connector;rounded=0;orthogonalLoop=1;jettySize=auto;html=1;exitX=0.25;exitY=0;exitDx=0;exitDy=0;strokeColor=default;align=center;verticalAlign=middle;fontFamily=Helvetica;fontSize=11;fontColor=default;labelBackgroundColor=default;endArrow=oval;endFill=1;" edge="1" parent="1" source="Jgj5xXcWkNo-XnmWYlLt-8" target="Jgj5xXcWkNo-XnmWYlLt-65">
          <mxGeometry relative="1" as="geometry">
            <Array as="points">
              <mxPoint x="690" y="-20" />
            </Array>
          </mxGeometry>
        </mxCell>
        <mxCell id="Jgj5xXcWkNo-XnmWYlLt-69" style="edgeStyle=orthogonalEdgeStyle;shape=connector;rounded=0;orthogonalLoop=1;jettySize=auto;html=1;exitX=0.5;exitY=0;exitDx=0;exitDy=0;entryX=0.5;entryY=1;entryDx=0;entryDy=0;strokeColor=default;align=center;verticalAlign=middle;fontFamily=Helvetica;fontSize=11;fontColor=default;labelBackgroundColor=default;endArrow=oval;endFill=0;" edge="1" parent="1" source="Jgj5xXcWkNo-XnmWYlLt-8" target="Jgj5xXcWkNo-XnmWYlLt-66">
          <mxGeometry relative="1" as="geometry" />
        </mxCell>
        <mxCell id="Jgj5xXcWkNo-XnmWYlLt-70" style="edgeStyle=orthogonalEdgeStyle;shape=connector;rounded=0;orthogonalLoop=1;jettySize=auto;html=1;exitX=0.75;exitY=0;exitDx=0;exitDy=0;entryX=0.5;entryY=1;entryDx=0;entryDy=0;strokeColor=default;align=center;verticalAlign=middle;fontFamily=Helvetica;fontSize=11;fontColor=default;labelBackgroundColor=default;endArrow=oval;endFill=0;" edge="1" parent="1" source="Jgj5xXcWkNo-XnmWYlLt-8" target="Jgj5xXcWkNo-XnmWYlLt-67">
          <mxGeometry relative="1" as="geometry">
            <Array as="points">
              <mxPoint x="790" y="-20" />
            </Array>
          </mxGeometry>
        </mxCell>
        <mxCell id="Jgj5xXcWkNo-XnmWYlLt-8" value="berth" style="rounded=0;whiteSpace=wrap;html=1;" vertex="1" parent="1">
          <mxGeometry x="680" y="-20" width="120" height="60" as="geometry" />
        </mxCell>
        <mxCell id="Jgj5xXcWkNo-XnmWYlLt-62" style="edgeStyle=orthogonalEdgeStyle;shape=connector;rounded=0;orthogonalLoop=1;jettySize=auto;html=1;exitX=0.25;exitY=1;exitDx=0;exitDy=0;entryX=0.5;entryY=0;entryDx=0;entryDy=0;strokeColor=default;align=center;verticalAlign=middle;fontFamily=Helvetica;fontSize=11;fontColor=default;labelBackgroundColor=default;endArrow=oval;endFill=0;" edge="1" parent="1" source="Jgj5xXcWkNo-XnmWYlLt-9" target="Jgj5xXcWkNo-XnmWYlLt-58">
          <mxGeometry relative="1" as="geometry">
            <Array as="points">
              <mxPoint x="690" y="670" />
            </Array>
          </mxGeometry>
        </mxCell>
        <mxCell id="Jgj5xXcWkNo-XnmWYlLt-63" style="edgeStyle=orthogonalEdgeStyle;shape=connector;rounded=0;orthogonalLoop=1;jettySize=auto;html=1;exitX=0.5;exitY=1;exitDx=0;exitDy=0;entryX=0.5;entryY=0;entryDx=0;entryDy=0;strokeColor=default;align=center;verticalAlign=middle;fontFamily=Helvetica;fontSize=11;fontColor=default;labelBackgroundColor=default;endArrow=oval;endFill=0;" edge="1" parent="1" source="Jgj5xXcWkNo-XnmWYlLt-9" target="Jgj5xXcWkNo-XnmWYlLt-59">
          <mxGeometry relative="1" as="geometry" />
        </mxCell>
        <mxCell id="Jgj5xXcWkNo-XnmWYlLt-64" style="edgeStyle=orthogonalEdgeStyle;shape=connector;rounded=0;orthogonalLoop=1;jettySize=auto;html=1;exitX=0.75;exitY=1;exitDx=0;exitDy=0;entryX=0.5;entryY=0;entryDx=0;entryDy=0;strokeColor=default;align=center;verticalAlign=middle;fontFamily=Helvetica;fontSize=11;fontColor=default;labelBackgroundColor=default;endArrow=oval;endFill=0;" edge="1" parent="1" source="Jgj5xXcWkNo-XnmWYlLt-9" target="Jgj5xXcWkNo-XnmWYlLt-60">
          <mxGeometry relative="1" as="geometry">
            <Array as="points">
              <mxPoint x="790" y="670" />
            </Array>
          </mxGeometry>
        </mxCell>
        <mxCell id="Jgj5xXcWkNo-XnmWYlLt-9" value="position" style="rounded=0;whiteSpace=wrap;html=1;" vertex="1" parent="1">
          <mxGeometry x="680" y="610" width="120" height="60" as="geometry" />
        </mxCell>
        <mxCell id="Jgj5xXcWkNo-XnmWYlLt-19" style="edgeStyle=orthogonalEdgeStyle;shape=connector;rounded=0;orthogonalLoop=1;jettySize=auto;html=1;exitX=0.5;exitY=1;exitDx=0;exitDy=0;entryX=0.5;entryY=0;entryDx=0;entryDy=0;strokeColor=default;align=center;verticalAlign=middle;fontFamily=Helvetica;fontSize=11;fontColor=default;labelBackgroundColor=default;endArrow=none;endFill=0;" edge="1" parent="1" source="Jgj5xXcWkNo-XnmWYlLt-10" target="Jgj5xXcWkNo-XnmWYlLt-9">
          <mxGeometry relative="1" as="geometry" />
        </mxCell>
        <mxCell id="Jgj5xXcWkNo-XnmWYlLt-10" value="located" style="rhombus;whiteSpace=wrap;html=1;" vertex="1" parent="1">
          <mxGeometry x="700" y="480" width="80" height="80" as="geometry" />
        </mxCell>
        <mxCell id="Jgj5xXcWkNo-XnmWYlLt-22" value="code" style="text;html=1;align=center;verticalAlign=middle;whiteSpace=wrap;rounded=0;fontFamily=Helvetica;fontSize=11;fontColor=default;labelBackgroundColor=default;" vertex="1" parent="1">
          <mxGeometry x="100" y="380" width="60" height="30" as="geometry" />
        </mxCell>
        <mxCell id="Jgj5xXcWkNo-XnmWYlLt-24" style="edgeStyle=orthogonalEdgeStyle;shape=connector;rounded=0;orthogonalLoop=1;jettySize=auto;html=1;exitX=0.25;exitY=1;exitDx=0;exitDy=0;entryX=0.5;entryY=0;entryDx=0;entryDy=0;strokeColor=default;align=center;verticalAlign=middle;fontFamily=Helvetica;fontSize=11;fontColor=default;labelBackgroundColor=default;endArrow=oval;endFill=1;" edge="1" parent="1" source="pIZPzY1zts8C6MZ0jh2w-1" target="Jgj5xXcWkNo-XnmWYlLt-22">
          <mxGeometry relative="1" as="geometry">
            <Array as="points">
              <mxPoint x="130" y="350" />
            </Array>
          </mxGeometry>
        </mxCell>
        <mxCell id="Jgj5xXcWkNo-XnmWYlLt-25" value="name" style="text;html=1;align=center;verticalAlign=middle;whiteSpace=wrap;rounded=0;fontFamily=Helvetica;fontSize=11;fontColor=default;labelBackgroundColor=default;" vertex="1" parent="1">
          <mxGeometry x="140" y="380" width="60" height="30" as="geometry" />
        </mxCell>
        <mxCell id="Jgj5xXcWkNo-XnmWYlLt-27" value="address" style="text;html=1;align=center;verticalAlign=middle;whiteSpace=wrap;rounded=0;fontFamily=Helvetica;fontSize=11;fontColor=default;labelBackgroundColor=default;" vertex="1" parent="1">
          <mxGeometry x="190" y="380" width="60" height="30" as="geometry" />
        </mxCell>
        <mxCell id="Jgj5xXcWkNo-XnmWYlLt-30" value="postal&lt;span style=&quot;color: rgba(0, 0, 0, 0); font-family: monospace; font-size: 0px; text-align: start; text-wrap: nowrap; background-color: rgb(251, 251, 251);&quot;&gt;%3CmxGraphModel%3E%3Croot%3E%3CmxCell%20id%3D%220%22%2F%3E%3CmxCell%20id%3D%221%22%20parent%3D%220%22%2F%3E%3CmxCell%20id%3D%222%22%20value%3D%22Code%22%20style%3D%22text%3Bhtml%3D1%3Balign%3Dcenter%3BverticalAlign%3Dmiddle%3BwhiteSpace%3Dwrap%3Brounded%3D0%3BfontFamily%3DHelvetica%3BfontSize%3D11%3BfontColor%3Ddefault%3BlabelBackgroundColor%3Ddefault%3B%22%20vertex%3D%221%22%20parent%3D%221%22%3E%3CmxGeometry%20x%3D%22100%22%20y%3D%22380%22%20width%3D%2260%22%20height%3D%2230%22%20as%3D%22geometry%22%2F%3E%3C%2FmxCell%3E%3C%2Froot%3E%3C%2FmxGraphModel%3E&lt;/span&gt;" style="text;html=1;align=center;verticalAlign=middle;whiteSpace=wrap;rounded=0;fontFamily=Helvetica;fontSize=11;fontColor=default;labelBackgroundColor=default;" vertex="1" parent="1">
          <mxGeometry x="100" y="240" width="60" height="30" as="geometry" />
        </mxCell>
        <mxCell id="Jgj5xXcWkNo-XnmWYlLt-31" value="city&lt;span style=&quot;color: rgba(0, 0, 0, 0); font-family: monospace; font-size: 0px; text-align: start; text-wrap: nowrap; background-color: rgb(251, 251, 251);&quot;&gt;%3CmxGraphModel%3E%3Croot%3E%3CmxCell%20id%3D%220%22%2F%3E%3CmxCell%20id%3D%221%22%20parent%3D%220%22%2F%3E%3CmxCell%20id%3D%222%22%20value%3D%22Code%22%20style%3D%22text%3Bhtml%3D1%3Balign%3Dcenter%3BverticalAlign%3Dmiddle%3BwhiteSpace%3Dwrap%3Brounded%3D0%3BfontFamily%3DHelvetica%3BfontSize%3D11%3BfontColor%3Ddefault%3BlabelBackgroundColor%3Ddefault%3B%22%20vertex%3D%221%22%20parent%3D%221%22%3E%3CmxGeometry%20x%3D%22100%22%20y%3D%22380%22%20width%3D%2260%22%20height%3D%2230%22%20as%3D%22geometry%22%2F%3E%3C%2FmxCell%3E%3C%2Froot%3E%3C%2FmxGraphModel%3E&lt;/span&gt;" style="text;html=1;align=center;verticalAlign=middle;whiteSpace=wrap;rounded=0;fontFamily=Helvetica;fontSize=11;fontColor=default;labelBackgroundColor=default;" vertex="1" parent="1">
          <mxGeometry x="150" y="240" width="60" height="30" as="geometry" />
        </mxCell>
        <mxCell id="Jgj5xXcWkNo-XnmWYlLt-32" value="country" style="text;html=1;align=center;verticalAlign=middle;whiteSpace=wrap;rounded=0;fontFamily=Helvetica;fontSize=11;fontColor=default;labelBackgroundColor=default;" vertex="1" parent="1">
          <mxGeometry x="200" y="240" width="60" height="30" as="geometry" />
        </mxCell>
        <mxCell id="Jgj5xXcWkNo-XnmWYlLt-36" value="ISO" style="text;html=1;align=center;verticalAlign=middle;whiteSpace=wrap;rounded=0;fontFamily=Helvetica;fontSize=11;fontColor=default;labelBackgroundColor=default;" vertex="1" parent="1">
          <mxGeometry x="400" y="380" width="60" height="30" as="geometry" />
        </mxCell>
        <mxCell id="Jgj5xXcWkNo-XnmWYlLt-37" value="description" style="text;html=1;align=center;verticalAlign=middle;whiteSpace=wrap;rounded=0;fontFamily=Helvetica;fontSize=11;fontColor=default;labelBackgroundColor=default;" vertex="1" parent="1">
          <mxGeometry x="460" y="380" width="60" height="30" as="geometry" />
        </mxCell>
        <mxCell id="Jgj5xXcWkNo-XnmWYlLt-40" value="MMSI" style="text;html=1;align=center;verticalAlign=middle;whiteSpace=wrap;rounded=0;fontFamily=Helvetica;fontSize=11;fontColor=default;labelBackgroundColor=default;" vertex="1" parent="1">
          <mxGeometry x="670" y="289" width="60" height="30" as="geometry" />
        </mxCell>
        <mxCell id="Jgj5xXcWkNo-XnmWYlLt-41" value="IMO" style="text;html=1;align=center;verticalAlign=middle;whiteSpace=wrap;rounded=0;fontFamily=Helvetica;fontSize=11;fontColor=default;labelBackgroundColor=default;" vertex="1" parent="1">
          <mxGeometry x="710" y="289" width="60" height="30" as="geometry" />
        </mxCell>
        <mxCell id="Jgj5xXcWkNo-XnmWYlLt-42" value="call_sign" style="text;html=1;align=center;verticalAlign=middle;whiteSpace=wrap;rounded=0;fontFamily=Helvetica;fontSize=11;fontColor=default;labelBackgroundColor=default;" vertex="1" parent="1">
          <mxGeometry x="750" y="289" width="60" height="30" as="geometry" />
        </mxCell>
        <mxCell id="Jgj5xXcWkNo-XnmWYlLt-46" value="name" style="text;html=1;align=center;verticalAlign=middle;whiteSpace=wrap;rounded=0;fontFamily=Helvetica;fontSize=11;fontColor=default;labelBackgroundColor=default;" vertex="1" parent="1">
          <mxGeometry x="820" y="204" width="60" height="30" as="geometry" />
        </mxCell>
        <mxCell id="Jgj5xXcWkNo-XnmWYlLt-47" value="width&lt;span style=&quot;color: rgba(0, 0, 0, 0); font-family: monospace; font-size: 0px; text-align: start; text-wrap: nowrap; background-color: rgb(251, 251, 251);&quot;&gt;%3CmxGraphModel%3E%3Croot%3E%3CmxCell%20id%3D%220%22%2F%3E%3CmxCell%20id%3D%221%22%20parent%3D%220%22%2F%3E%3CmxCell%20id%3D%222%22%20value%3D%22mmsi%22%20style%3D%22text%3Bhtml%3D1%3Balign%3Dcenter%3BverticalAlign%3Dmiddle%3BwhiteSpace%3Dwrap%3Brounded%3D0%3BfontFamily%3DHelvetica%3BfontSize%3D11%3BfontColor%3Ddefault%3BlabelBackgroundColor%3Ddefault%3B%22%20vertex%3D%221%22%20parent%3D%221%22%3E%3CmxGeometry%20x%3D%22670%22%20y%3D%22280%22%20width%3D%2260%22%20height%3D%2230%22%20as%3D%22geometry%22%2F%3E%3C%2FmxCell%3E%3C%2Froot%3E%3C%2FmxGraphModel%3E&lt;/span&gt;" style="text;html=1;align=center;verticalAlign=middle;whiteSpace=wrap;rounded=0;fontFamily=Helvetica;fontSize=11;fontColor=default;labelBackgroundColor=default;" vertex="1" parent="1">
          <mxGeometry x="820" y="224" width="60" height="30" as="geometry" />
        </mxCell>
        <mxCell id="Jgj5xXcWkNo-XnmWYlLt-48" value="length" style="text;html=1;align=center;verticalAlign=middle;whiteSpace=wrap;rounded=0;fontFamily=Helvetica;fontSize=11;fontColor=default;labelBackgroundColor=default;" vertex="1" parent="1">
          <mxGeometry x="820" y="245" width="60" height="30" as="geometry" />
        </mxCell>
        <mxCell id="Jgj5xXcWkNo-XnmWYlLt-52" value="id" style="text;html=1;align=center;verticalAlign=middle;whiteSpace=wrap;rounded=0;fontFamily=Helvetica;fontSize=11;fontColor=default;labelBackgroundColor=default;" vertex="1" parent="1">
          <mxGeometry x="820" y="364.5" width="60" height="30" as="geometry" />
        </mxCell>
        <mxCell id="Jgj5xXcWkNo-XnmWYlLt-53" value="category" style="text;html=1;align=center;verticalAlign=middle;whiteSpace=wrap;rounded=0;fontFamily=Helvetica;fontSize=11;fontColor=default;labelBackgroundColor=default;" vertex="1" parent="1">
          <mxGeometry x="820" y="384.5" width="60" height="30" as="geometry" />
        </mxCell>
        <mxCell id="Jgj5xXcWkNo-XnmWYlLt-54" value="max_tier" style="text;html=1;align=center;verticalAlign=middle;whiteSpace=wrap;rounded=0;fontFamily=Helvetica;fontSize=11;fontColor=default;labelBackgroundColor=default;" vertex="1" parent="1">
          <mxGeometry x="820" y="405.5" width="60" height="30" as="geometry" />
        </mxCell>
        <mxCell id="Jgj5xXcWkNo-XnmWYlLt-58" value="bay" style="text;html=1;align=center;verticalAlign=middle;whiteSpace=wrap;rounded=0;fontFamily=Helvetica;fontSize=11;fontColor=default;labelBackgroundColor=default;" vertex="1" parent="1">
          <mxGeometry x="660" y="710" width="60" height="30" as="geometry" />
        </mxCell>
        <mxCell id="Jgj5xXcWkNo-XnmWYlLt-59" value="row" style="text;html=1;align=center;verticalAlign=middle;whiteSpace=wrap;rounded=0;fontFamily=Helvetica;fontSize=11;fontColor=default;labelBackgroundColor=default;" vertex="1" parent="1">
          <mxGeometry x="710" y="710" width="60" height="30" as="geometry" />
        </mxCell>
        <mxCell id="Jgj5xXcWkNo-XnmWYlLt-60" value="tier" style="text;html=1;align=center;verticalAlign=middle;whiteSpace=wrap;rounded=0;fontFamily=Helvetica;fontSize=11;fontColor=default;labelBackgroundColor=default;" vertex="1" parent="1">
          <mxGeometry x="760" y="710" width="60" height="30" as="geometry" />
        </mxCell>
        <mxCell id="Jgj5xXcWkNo-XnmWYlLt-65" value="id" style="text;html=1;align=center;verticalAlign=middle;whiteSpace=wrap;rounded=0;fontFamily=Helvetica;fontSize=11;fontColor=default;labelBackgroundColor=default;" vertex="1" parent="1">
          <mxGeometry x="660" y="-91" width="60" height="30" as="geometry" />
        </mxCell>
        <mxCell id="Jgj5xXcWkNo-XnmWYlLt-66" value="longitude" style="text;html=1;align=center;verticalAlign=middle;whiteSpace=wrap;rounded=0;fontFamily=Helvetica;fontSize=11;fontColor=default;labelBackgroundColor=default;" vertex="1" parent="1">
          <mxGeometry x="710" y="-91" width="60" height="30" as="geometry" />
        </mxCell>
        <mxCell id="Jgj5xXcWkNo-XnmWYlLt-67" value="latitude" style="text;html=1;align=center;verticalAlign=middle;whiteSpace=wrap;rounded=0;fontFamily=Helvetica;fontSize=11;fontColor=default;labelBackgroundColor=default;" vertex="1" parent="1">
          <mxGeometry x="760" y="-91" width="60" height="30" as="geometry" />
        </mxCell>
        <mxCell id="Jgj5xXcWkNo-XnmWYlLt-71" value="" style="endArrow=oval;html=1;rounded=0;strokeColor=default;align=center;verticalAlign=middle;fontFamily=Helvetica;fontSize=11;fontColor=default;labelBackgroundColor=default;endFill=1;startArrow=oval;startFill=1;" edge="1" parent="1">
          <mxGeometry width="50" height="50" relative="1" as="geometry">
            <mxPoint x="690" y="690" as="sourcePoint" />
            <mxPoint x="740" y="690" as="targetPoint" />
          </mxGeometry>
        </mxCell>
        <mxCell id="Jgj5xXcWkNo-XnmWYlLt-72" value="" style="endArrow=oval;html=1;rounded=0;strokeColor=default;align=center;verticalAlign=middle;fontFamily=Helvetica;fontSize=11;fontColor=default;labelBackgroundColor=default;endFill=1;startArrow=oval;startFill=1;" edge="1" parent="1">
          <mxGeometry width="50" height="50" relative="1" as="geometry">
            <mxPoint x="740" y="690" as="sourcePoint" />
            <mxPoint x="790" y="690" as="targetPoint" />
          </mxGeometry>
        </mxCell>
        <mxCell id="Jgj5xXcWkNo-XnmWYlLt-73" value="" style="endArrow=oval;html=1;rounded=0;strokeColor=default;align=center;verticalAlign=middle;fontFamily=Helvetica;fontSize=11;fontColor=default;labelBackgroundColor=default;endFill=1;startArrow=oval;startFill=1;edgeStyle=orthogonalEdgeStyle;" edge="1" parent="1">
          <mxGeometry width="50" height="50" relative="1" as="geometry">
            <mxPoint x="740" y="456.3265306122449" as="sourcePoint" />
            <mxPoint x="690" y="690" as="targetPoint" />
            <Array as="points">
              <mxPoint x="640" y="456" />
              <mxPoint x="640" y="690" />
            </Array>
          </mxGeometry>
        </mxCell>
        <mxCell id="Jgj5xXcWkNo-XnmWYlLt-74" value="" style="endArrow=oval;html=1;rounded=0;strokeColor=default;align=center;verticalAlign=middle;fontFamily=Helvetica;fontSize=11;fontColor=default;labelBackgroundColor=default;endFill=1;startArrow=oval;startFill=1;" edge="1" parent="1">
          <mxGeometry width="50" height="50" relative="1" as="geometry">
            <mxPoint x="740" y="-40" as="sourcePoint" />
            <mxPoint x="790" y="-40" as="targetPoint" />
          </mxGeometry>
        </mxCell>
        <mxCell id="Jgj5xXcWkNo-XnmWYlLt-75" value="(0, n)" style="text;html=1;align=center;verticalAlign=middle;whiteSpace=wrap;rounded=0;fontFamily=Helvetica;fontSize=11;fontColor=default;labelBackgroundColor=default;" vertex="1" parent="1">
          <mxGeometry x="230" y="275" width="60" height="30" as="geometry" />
        </mxCell>
        <mxCell id="Jgj5xXcWkNo-XnmWYlLt-77" value="(1, 1)" style="text;html=1;align=center;verticalAlign=middle;whiteSpace=wrap;rounded=0;fontFamily=Helvetica;fontSize=11;fontColor=default;labelBackgroundColor=default;" vertex="1" parent="1">
          <mxGeometry x="350" y="275" width="60" height="30" as="geometry" />
        </mxCell>
        <mxCell id="Jgj5xXcWkNo-XnmWYlLt-78" value="(1, 1)" style="text;html=1;align=center;verticalAlign=middle;whiteSpace=wrap;rounded=0;fontFamily=Helvetica;fontSize=11;fontColor=default;labelBackgroundColor=default;" vertex="1" parent="1">
          <mxGeometry x="510" y="275" width="60" height="30" as="geometry" />
        </mxCell>
        <mxCell id="Jgj5xXcWkNo-XnmWYlLt-79" value="(0, n)" style="text;html=1;align=center;verticalAlign=middle;whiteSpace=wrap;rounded=0;fontFamily=Helvetica;fontSize=11;fontColor=default;labelBackgroundColor=default;" vertex="1" parent="1">
          <mxGeometry x="630" y="360" width="60" height="30" as="geometry" />
        </mxCell>
        <mxCell id="Jgj5xXcWkNo-XnmWYlLt-80" value="(0, n)" style="text;html=1;align=center;verticalAlign=middle;whiteSpace=wrap;rounded=0;fontFamily=Helvetica;fontSize=11;fontColor=default;labelBackgroundColor=default;" vertex="1" parent="1">
          <mxGeometry x="630" y="240" width="60" height="30" as="geometry" />
        </mxCell>
        <mxCell id="Jgj5xXcWkNo-XnmWYlLt-81" value="(0, 1)" style="text;html=1;align=center;verticalAlign=middle;whiteSpace=wrap;rounded=0;fontFamily=Helvetica;fontSize=11;fontColor=default;labelBackgroundColor=default;" vertex="1" parent="1">
          <mxGeometry x="740" y="180" width="60" height="30" as="geometry" />
        </mxCell>
        <mxCell id="Jgj5xXcWkNo-XnmWYlLt-83" value="(0, 1)" style="text;html=1;align=center;verticalAlign=middle;whiteSpace=wrap;rounded=0;fontFamily=Helvetica;fontSize=11;fontColor=default;labelBackgroundColor=default;" vertex="1" parent="1">
          <mxGeometry x="740" y="40" width="60" height="30" as="geometry" />
        </mxCell>
        <mxCell id="Jgj5xXcWkNo-XnmWYlLt-85" value="(1, 1)" style="text;html=1;align=center;verticalAlign=middle;whiteSpace=wrap;rounded=0;fontFamily=Helvetica;fontSize=11;fontColor=default;labelBackgroundColor=default;" vertex="1" parent="1">
          <mxGeometry x="740" y="430" width="60" height="30" as="geometry" />
        </mxCell>
        <mxCell id="Jgj5xXcWkNo-XnmWYlLt-86" value="(1, 1)" style="text;html=1;align=center;verticalAlign=middle;whiteSpace=wrap;rounded=0;fontFamily=Helvetica;fontSize=11;fontColor=default;labelBackgroundColor=default;" vertex="1" parent="1">
          <mxGeometry x="740" y="580" width="60" height="30" as="geometry" />
        </mxCell>
      </root>
    </mxGraphModel>
  </diagram>
</mxfile>
